<?xml version="1.0" encoding="UTF-8" standalone="no"?>
<!-- Created with Inkscape (http://www.inkscape.org/) -->

<svg
   xmlns:dc="http://purl.org/dc/elements/1.1/"
   xmlns:cc="http://creativecommons.org/ns#"
   xmlns:rdf="http://www.w3.org/1999/02/22-rdf-syntax-ns#"
   xmlns:svg="http://www.w3.org/2000/svg"
   xmlns="http://www.w3.org/2000/svg"
   xmlns:sodipodi="http://sodipodi.sourceforge.net/DTD/sodipodi-0.dtd"
   xmlns:inkscape="http://www.inkscape.org/namespaces/inkscape"
   width="304.53125"
   height="321.75"
   id="svg2"
   version="1.1"
   inkscape:version="0.48.3.1 r9886"
   sodipodi:docname="available_in_geneva.svg">
  <defs
     id="defs4" />
  <sodipodi:namedview
     id="base"
     pagecolor="#ffffff"
     bordercolor="#666666"
     borderopacity="1.0"
     inkscape:pageopacity="0.0"
     inkscape:pageshadow="2"
     inkscape:zoom="2.8"
     inkscape:cx="40.88832"
     inkscape:cy="79.162199"
     inkscape:document-units="px"
     inkscape:current-layer="layer1"
     showgrid="false"
     inkscape:window-width="1920"
     inkscape:window-height="1141"
     inkscape:window-x="0"
     inkscape:window-y="27"
     inkscape:window-maximized="1"
     fit-margin-top="0"
     fit-margin-left="0"
     fit-margin-right="0"
     fit-margin-bottom="0" />
  <metadata
     id="metadata7">
    <rdf:RDF>
      <cc:Work
         rdf:about="">
        <dc:format>image/svg+xml</dc:format>
        <dc:type
           rdf:resource="http://purl.org/dc/dcmitype/StillImage" />
        <dc:title />
      </cc:Work>
    </rdf:RDF>
  </metadata>
  <g
     inkscape:label="Layer 1"
     inkscape:groupmode="layer"
     id="layer1"
     transform="translate(-267.40625,-282.53125)">
    <path
       style="fill:none;stroke:#000000;stroke-width:0.47397816px;stroke-linecap:butt;stroke-linejoin:miter;stroke-opacity:1"
       d="m 428.14391,604.05376 c 56.87738,0 56.87738,0 56.87738,0 l 86.67029,-86.67029 0,-65.00272 z"
       id="path2985"
       inkscape:connector-curvature="0" />
    <path
       style="opacity:1;fill:#9ded9d;fill-opacity:1;stroke:none"
       d="m 429.7939,602.94612 c 0.32122,-0.39642 32.27025,-34.19116 70.99783,-75.09941 l 70.41379,-74.37865 0.0639,31.90686 0.0639,31.90686 -43.19202,43.19255 -43.192,43.19256 -27.86967,0 -27.86967,0 0.58405,-0.72077 z"
       id="path3802"
       inkscape:connector-curvature="0" />
    <g
       transform="matrix(0.70710678,-0.70710678,0.70710678,0.70710678,0,0)"
       style="font-size:14.54834843px;font-style:normal;font-variant:normal;font-weight:normal;font-stretch:normal;line-height:125%;letter-spacing:0px;word-spacing:0px;fill:#000000;fill-opacity:1;stroke:none;font-family:Trebuchet MS;-inkscape-font-specification:Trebuchet MS"
       id="text2991">
      <path
         d="m -93.268147,754.12177 1.833092,0 1.047481,-2.45868 4.815503,0 1.032933,2.45868 1.891285,0 -4.480891,-10.25659 -1.658512,0 -4.480891,10.25659 m 3.535249,-4.04445 1.745801,-4.07353 1.760351,4.07353 -3.506152,0"
         style="font-family:Gotham;-inkscape-font-specification:Gotham"
         id="path2995" />
      <path
         d="m -79.655893,754.17996 1.58577,0 3.142443,-7.73972 -1.84764,0 -2.080414,5.64476 -2.065866,-5.64476 -1.891285,0 3.156992,7.73972"
         style="font-family:Gotham;-inkscape-font-specification:Gotham"
         id="path2997" />
      <path
         d="m -71.577014,754.2818 c 1.178415,0 1.978576,-0.49465 2.502316,-1.12023 l 0,0.9602 1.716705,0 0,-4.55364 c 0,-1.00383 -0.261871,-1.81854 -0.829256,-2.37138 -0.538288,-0.55284 -1.396642,-0.85835 -2.545961,-0.85835 -1.22206,0 -2.051318,0.24732 -2.895121,0.62558 l 0.465547,1.38209 c 0.69832,-0.29097 1.338449,-0.48009 2.196801,-0.48009 1.236608,0 1.905833,0.58193 1.905833,1.67306 l 0,0.18912 c -0.596481,-0.18912 -1.207513,-0.32006 -2.065865,-0.32006 -1.876735,0 -3.17154,0.81471 -3.17154,2.47322 l 0,0.0291 c 0,1.54212 1.280256,2.37138 2.720541,2.37138 m 0.494644,-1.28026 c -0.843803,0 -1.49848,-0.4219 -1.49848,-1.16387 l 0,-0.0291 c 0,-0.80016 0.669225,-1.28026 1.803995,-1.28026 0.69832,0 1.294804,0.13094 1.745802,0.30552 l 0,0.52374 c 0,0.97474 -0.88745,1.64396 -2.051317,1.64396"
         style="font-family:Gotham;-inkscape-font-specification:Gotham"
         id="path2999" />
      <path
         d="m -65.206429,745.26182 1.891286,0 0,-1.67306 -1.891286,0 0,1.67306 m 0.07274,8.85995 1.76035,0 0,-7.68153 -1.76035,0 0,7.68153"
         style="font-family:Gotham;-inkscape-font-specification:Gotham"
         id="path3001" />
      <path
         d="m -60.985135,754.12177 1.76035,0 0,-10.6203 -1.76035,0 0,10.6203"
         style="font-family:Gotham;-inkscape-font-specification:Gotham"
         id="path3003" />
      <path
         d="m -54.727071,754.2818 c 1.178415,0 1.978576,-0.49465 2.502316,-1.12023 l 0,0.9602 1.716705,0 0,-4.55364 c 0,-1.00383 -0.26187,-1.81854 -0.829255,-2.37138 -0.538289,-0.55284 -1.396643,-0.85835 -2.545961,-0.85835 -1.22206,0 -2.051318,0.24732 -2.895122,0.62558 l 0.465547,1.38209 c 0.69832,-0.29097 1.338449,-0.48009 2.196801,-0.48009 1.236608,0 1.905834,0.58193 1.905834,1.67306 l 0,0.18912 c -0.596482,-0.18912 -1.207514,-0.32006 -2.065866,-0.32006 -1.876735,0 -3.17154,0.81471 -3.17154,2.47322 l 0,0.0291 c 0,1.54212 1.280256,2.37138 2.720541,2.37138 m 0.494644,-1.28026 c -0.843803,0 -1.49848,-0.4219 -1.49848,-1.16387 l 0,-0.0291 c 0,-0.80016 0.669225,-1.28026 1.803996,-1.28026 0.69832,0 1.294803,0.13094 1.745801,0.30552 l 0,0.52374 c 0,0.97474 -0.88745,1.64396 -2.051317,1.64396"
         style="font-family:Gotham;-inkscape-font-specification:Gotham"
         id="path3005" />
      <path
         d="m -44.006529,754.2818 c 1.818541,0 3.564345,-1.44029 3.564345,-3.98625 l 0,-0.0291 c 0,-2.5605 -1.760352,-3.98624 -3.564345,-3.98624 -1.251157,0 -2.051318,0.64012 -2.618703,1.44028 l 0,-4.21902 -1.76035,0 0,10.6203 1.76035,0 0,-1.19297 c 0.538288,0.71287 1.338449,1.353 2.618703,1.353 m -0.421902,-1.52758 c -1.192964,0 -2.240446,-0.98929 -2.240446,-2.45867 l 0,-0.0291 c 0,-1.46938 1.047482,-2.45867 2.240446,-2.45867 1.192963,0 2.1968,0.97474 2.1968,2.45867 l 0,0.0291 c 0,1.51303 -0.989289,2.45867 -2.1968,2.45867"
         style="font-family:Gotham;-inkscape-font-specification:Gotham"
         id="path3007" />
      <path
         d="m -38.509074,754.12177 1.76035,0 0,-10.6203 -1.76035,0 0,10.6203"
         style="font-family:Gotham;-inkscape-font-specification:Gotham"
         id="path3009" />
      <path
         d="m -30.94166,754.29635 c 1.411188,0 2.415026,-0.56739 3.142443,-1.44029 l -1.032933,-0.91655 c -0.61103,0.59648 -1.222062,0.91655 -2.080414,0.91655 -1.13477,0 -2.02222,-0.69832 -2.211349,-1.94948 l 5.64476,0 c 0.01455,-0.17458 0.0291,-0.33461 0.0291,-0.49464 0,-2.21135 -1.236612,-4.13173 -3.680732,-4.13173 -2.196798,0 -3.753474,1.80399 -3.753474,4.00079 l 0,0.0291 c 0,2.37138 1.716708,3.98625 3.942603,3.98625 m -2.196801,-4.55364 c 0.160032,-1.19296 0.916547,-2.02222 1.993124,-2.02222 1.163867,0 1.833092,0.88745 1.949478,2.02222 l -3.942602,0"
         style="font-family:Gotham;-inkscape-font-specification:Gotham"
         id="path3011" />
      <path
         d="m -21.277239,745.26182 1.891285,0 0,-1.67306 -1.891285,0 0,1.67306 m 0.07274,8.85995 1.76035,0 0,-7.68153 -1.76035,0 0,7.68153"
         style="font-family:Gotham;-inkscape-font-specification:Gotham"
         id="path3013" />
      <path
         d="m -17.157784,754.12177 1.76035,0 0,-4.33541 c 0,-1.19297 0.71287,-1.90584 1.731254,-1.90584 1.04748,0 1.643963,0.68378 1.643963,1.87674 l 0,4.36451 1.76035,0 0,-4.9028 c 0,-1.7749 -1.003837,-2.93876 -2.735089,-2.93876 -1.192963,0 -1.905834,0.62558 -2.400478,1.33844 l 0,-1.17841 -1.76035,0 0,7.68153"
         style="font-family:Gotham;-inkscape-font-specification:Gotham"
         id="path3015" />
      <path
         d="m 1.2592913,754.29635 c 1.8039934,0 3.2442827,-0.72742 4.2481178,-1.58577 l 0,-4.27722 -4.3354078,0 0,1.55667 2.6041543,0 0,1.90584 c -0.6255783,0.46554 -1.4984808,0.77106 -2.4586709,0.77106 -2.08041171,0 -3.4625069,-1.54213 -3.4625069,-3.63709 l 0,-0.0291 c 0,-1.94948 1.42574003,-3.59345 3.3024751,-3.59345 1.2948017,0 2.0658663,0.42191 2.8514763,1.09113 l 1.1347712,-1.353 c -1.0474801,-0.88744 -2.138609,-1.38209 -3.9135058,-1.38209 -3.0696984,0 -5.2519537,2.41503 -5.2519537,5.2665 l 0,0.0291 c 0,2.96786 2.0949653,5.23741 5.2810504,5.23741"
         style="font-family:Gotham;-inkscape-font-specification:Gotham"
         id="path3017" />
      <path
         d="m 11.140573,754.29635 c 1.411188,0 2.415027,-0.56739 3.142443,-1.44029 l -1.032932,-0.91655 c -0.61103,0.59648 -1.222063,0.91655 -2.080414,0.91655 -1.13477,0 -2.0222208,-0.69832 -2.2113492,-1.94948 l 5.6447592,0 c 0.01455,-0.17458 0.0291,-0.33461 0.0291,-0.49464 0,-2.21135 -1.236612,-4.13173 -3.680732,-4.13173 -2.1967988,0 -3.7534743,1.80399 -3.7534743,4.00079 l 0,0.0291 c 0,2.37138 1.7167073,3.98625 3.9426023,3.98625 m -2.1968005,-4.55364 c 0.1600317,-1.19296 0.916547,-2.02222 1.9931235,-2.02222 1.163867,0 1.833092,0.88745 1.949479,2.02222 l -3.9426025,0"
         style="font-family:Gotham;-inkscape-font-specification:Gotham"
         id="path3019" />
      <path
         d="m 16.400032,754.12177 1.76035,0 0,-4.33541 c 0,-1.19297 0.71287,-1.90584 1.731253,-1.90584 1.04748,0 1.643964,0.68378 1.643964,1.87674 l 0,4.36451 1.76035,0 0,-4.9028 c 0,-1.7749 -1.003838,-2.93876 -2.73509,-2.93876 -1.192963,0 -1.905834,0.62558 -2.400477,1.33844 l 0,-1.17841 -1.76035,0 0,7.68153"
         style="font-family:Gotham;-inkscape-font-specification:Gotham"
         id="path3021" />
      <path
         d="m 28.928201,754.29635 c 1.411189,0 2.415027,-0.56739 3.142444,-1.44029 l -1.032933,-0.91655 c -0.61103,0.59648 -1.222062,0.91655 -2.080414,0.91655 -1.13477,0 -2.022221,-0.69832 -2.211349,-1.94948 l 5.644759,0 c 0.01455,-0.17458 0.0291,-0.33461 0.0291,-0.49464 0,-2.21135 -1.236612,-4.13173 -3.680732,-4.13173 -2.196799,0 -3.753474,1.80399 -3.753474,4.00079 l 0,0.0291 c 0,2.37138 1.716707,3.98625 3.942602,3.98625 m -2.1968,-4.55364 c 0.160031,-1.19296 0.916547,-2.02222 1.993123,-2.02222 1.163867,0 1.833092,0.88745 1.949479,2.02222 l -3.942602,0"
         style="font-family:Gotham;-inkscape-font-specification:Gotham"
         id="path3023" />
      <path
         d="m 36.247842,754.17996 1.58577,0 3.142443,-7.73972 -1.84764,0 -2.080414,5.64476 -2.065866,-5.64476 -1.891285,0 3.156992,7.73972"
         style="font-family:Gotham;-inkscape-font-specification:Gotham"
         id="path3025" />
      <path
         d="m 44.32672,754.2818 c 1.178415,0 1.978576,-0.49465 2.502316,-1.12023 l 0,0.9602 1.716705,0 0,-4.55364 c 0,-1.00383 -0.26187,-1.81854 -0.829255,-2.37138 -0.538289,-0.55284 -1.396643,-0.85835 -2.545961,-0.85835 -1.22206,0 -2.051318,0.24732 -2.895122,0.62558 l 0.465547,1.38209 c 0.69832,-0.29097 1.338449,-0.48009 2.196801,-0.48009 1.236608,0 1.905834,0.58193 1.905834,1.67306 l 0,0.18912 c -0.596482,-0.18912 -1.207514,-0.32006 -2.065866,-0.32006 -1.876735,0 -3.17154,0.81471 -3.17154,2.47322 l 0,0.0291 c 0,1.54212 1.280256,2.37138 2.720541,2.37138 m 0.494644,-1.28026 c -0.843803,0 -1.49848,-0.4219 -1.49848,-1.16387 l 0,-0.0291 c 0,-0.80016 0.669226,-1.28026 1.803996,-1.28026 0.69832,0 1.294803,0.13094 1.745801,0.30552 l 0,0.52374 c 0,0.97474 -0.88745,1.64396 -2.051317,1.64396"
         style="font-family:Gotham;-inkscape-font-specification:Gotham"
         id="path3027" />
    </g>
  </g>
</svg>
