<?xml version="1.0" encoding="UTF-8" standalone="no"?>
<!-- Created with Inkscape (http://www.inkscape.org/) -->

<svg
   xmlns:dc="http://purl.org/dc/elements/1.1/"
   xmlns:cc="http://creativecommons.org/ns#"
   xmlns:rdf="http://www.w3.org/1999/02/22-rdf-syntax-ns#"
   xmlns:svg="http://www.w3.org/2000/svg"
   xmlns="http://www.w3.org/2000/svg"
   xmlns:sodipodi="http://sodipodi.sourceforge.net/DTD/sodipodi-0.dtd"
   xmlns:inkscape="http://www.inkscape.org/namespaces/inkscape"
   width="304.53125"
   height="321.75"
   id="svg2"
   version="1.1"
   inkscape:version="0.48.3.1 r9886"
   sodipodi:docname="available.svg">
  <defs
     id="defs4" />
  <sodipodi:namedview
     id="base"
     pagecolor="#ffffff"
     bordercolor="#666666"
     borderopacity="1.0"
     inkscape:pageopacity="0.0"
     inkscape:pageshadow="2"
     inkscape:zoom="2.8"
     inkscape:cx="211.66607"
     inkscape:cy="54.858975"
     inkscape:document-units="px"
     inkscape:current-layer="text2991"
     showgrid="false"
     inkscape:window-width="1668"
     inkscape:window-height="931"
     inkscape:window-x="250"
     inkscape:window-y="27"
     inkscape:window-maximized="0"
     fit-margin-top="0"
     fit-margin-left="0"
     fit-margin-right="0"
     fit-margin-bottom="0" />
  <metadata
     id="metadata7">
    <rdf:RDF>
      <cc:Work
         rdf:about="">
        <dc:format>image/svg+xml</dc:format>
        <dc:type
           rdf:resource="http://purl.org/dc/dcmitype/StillImage" />
        <dc:title />
      </cc:Work>
    </rdf:RDF>
  </metadata>
  <g
     inkscape:label="Layer 1"
     inkscape:groupmode="layer"
     id="layer1"
     transform="translate(-267.40625,-282.53125)">
    <path
       style="fill:none;stroke:#000000;stroke-width:0.47842854px;stroke-linecap:butt;stroke-linejoin:miter;stroke-opacity:1"
       d="m 426.79386,604.05153 c 57.41143,0 57.41143,0 57.41143,0 l 87.48406,-87.48406 0,-65.61306 z"
       id="path2985"
       inkscape:connector-curvature="0" />
    <path
       style="opacity:1;fill:#9ded9d;fill-opacity:1;stroke:none"
       d="m 428.45933,602.93349 c 0.32425,-0.40014 32.57325,-34.51219 71.66447,-75.80454 l 71.07493,-75.07702 0.0645,32.20644 0.0645,32.20644 -43.59756,43.59811 -43.59756,43.59811 -28.13134,0 -28.13136,0 0.58954,-0.72754 z"
       id="path3802"
       inkscape:connector-curvature="0" />
    <g
       transform="matrix(0.70710678,-0.70710678,0.70710678,0.70710678,0,0)"
       style="font-size:15.55044937px;font-style:normal;font-variant:normal;font-weight:normal;font-stretch:normal;line-height:125%;letter-spacing:0px;word-spacing:0px;fill:#000000;fill-opacity:1;stroke:none;font-family:Trebuchet MS;-inkscape-font-specification:Trebuchet MS"
       id="text2991">
      <path
         d="m -58.664075,752.70166 1.959357,0 1.119632,-2.62803 5.147199,0 1.104082,2.62803 2.021558,0 -4.789538,-10.96307 -1.772752,0 -4.789538,10.96307 m 3.778759,-4.32302 1.866054,-4.35413 1.881604,4.35413 -3.747658,0"
         style="font-family:Gotham;-inkscape-font-specification:Gotham"
         id="path2995" />
      <path
         d="m -44.114199,752.76386 1.694999,0 3.358897,-8.27284 -1.974907,0 -2.223715,6.03358 -2.208164,-6.03358 -2.021558,0 3.374448,8.27284"
         style="font-family:Gotham;-inkscape-font-specification:Gotham"
         id="path2997" />
      <path
         d="m -35.478839,752.87272 c 1.259585,0 2.114862,-0.52872 2.674677,-1.19739 l 0,1.02633 1.834953,0 0,-4.86729 c 0,-1.07298 -0.279909,-1.94381 -0.886375,-2.53472 -0.575366,-0.59092 -1.492845,-0.91748 -2.721329,-0.91748 -1.306237,0 -2.192614,0.26436 -3.094539,0.66867 l 0.497614,1.47729 c 0.746421,-0.31101 1.430642,-0.51316 2.348118,-0.51316 1.321787,0 2.037109,0.62202 2.037109,1.7883 l 0,0.20215 c -0.637568,-0.20215 -1.290689,-0.34211 -2.208164,-0.34211 -2.006006,0 -3.389998,0.87083 -3.389998,2.64358 l 0,0.0311 c 0,1.64835 1.368441,2.53473 2.907934,2.53473 m 0.528715,-1.36844 c -0.901925,0 -1.601696,-0.45097 -1.601696,-1.24404 l 0,-0.0311 c 0,-0.85528 0.715322,-1.36844 1.928256,-1.36844 0.74642,0 1.38399,0.13995 1.866054,0.32656 l 0,0.55981 c 0,1.04188 -0.948579,1.75721 -2.192614,1.75721"
         style="font-family:Gotham;-inkscape-font-specification:Gotham"
         id="path2999" />
      <path
         d="m -28.669444,743.23144 2.021558,0 0,-1.78831 -2.021558,0 0,1.78831 m 0.07775,9.47022 1.881604,0 0,-8.21064 -1.881604,0 0,8.21064"
         style="font-family:Gotham;-inkscape-font-specification:Gotham"
         id="path3001" />
      <path
         d="m -24.157383,752.70166 1.881604,0 0,-11.35183 -1.881604,0 0,11.35183"
         style="font-family:Gotham;-inkscape-font-specification:Gotham"
         id="path3003" />
      <path
         d="m -17.468261,752.87272 c 1.259585,0 2.114862,-0.52872 2.674677,-1.19739 l 0,1.02633 1.834953,0 0,-4.86729 c 0,-1.07298 -0.279908,-1.94381 -0.886375,-2.53472 -0.575366,-0.59092 -1.492845,-0.91748 -2.721329,-0.91748 -1.306236,0 -2.192614,0.26436 -3.094539,0.66867 l 0.497614,1.47729 c 0.746421,-0.31101 1.430642,-0.51316 2.348118,-0.51316 1.321787,0 2.037109,0.62202 2.037109,1.7883 l 0,0.20215 c -0.637568,-0.20215 -1.290688,-0.34211 -2.208164,-0.34211 -2.006006,0 -3.389998,0.87083 -3.389998,2.64358 l 0,0.0311 c 0,1.64835 1.368441,2.53473 2.907934,2.53473 m 0.528715,-1.36844 c -0.901925,0 -1.601696,-0.45097 -1.601696,-1.24404 l 0,-0.0311 c 0,-0.85528 0.715322,-1.36844 1.928256,-1.36844 0.746421,0 1.38399,0.13995 1.866054,0.32656 l 0,0.55981 c 0,1.04188 -0.948579,1.75721 -2.192614,1.75721"
         style="font-family:Gotham;-inkscape-font-specification:Gotham"
         id="path3005" />
      <path
         d="m -6.0092801,752.87272 c 1.9438043,0 3.8098601,-1.5395 3.8098601,-4.26083 l 0,-0.0311 c 0,-2.73688 -1.8816063,-4.26082 -3.8098601,-4.26082 -1.3373373,0 -2.1926139,0.68422 -2.7990808,1.53949 l 0,-4.50963 -1.8816041,0 0,11.35183 1.8816041,0 0,-1.27514 c 0.575366,0.76197 1.4306427,1.4462 2.7990808,1.4462 m -0.450963,-1.6328 c -1.2751356,0 -2.3947692,-1.05743 -2.3947692,-2.62803 l 0,-0.0311 c 0,-1.57059 1.1196336,-2.62802 2.3947692,-2.62802 1.2751356,0 2.3481179,1.04188 2.3481179,2.62802 l 0,0.0311 c 0,1.61725 -1.0574319,2.62803 -2.3481179,2.62803"
         style="font-family:Gotham;-inkscape-font-specification:Gotham"
         id="path3007" />
      <path
         d="m -0.13315609,752.70166 1.88160439,0 0,-11.35183 -1.88160439,0 0,11.35183"
         style="font-family:Gotham;-inkscape-font-specification:Gotham"
         id="path3009" />
      <path
         d="m 7.9555066,752.88827 c 1.5083921,0 2.5813754,-0.60647 3.3588974,-1.5395 l -1.104082,-0.97968 c -0.6531184,0.63757 -1.3062389,0.97968 -2.2237145,0.97968 -1.2129338,0 -2.1615127,-0.74642 -2.3636683,-2.08376 l 6.0335748,0 c 0.01555,-0.1866 0.0311,-0.35766 0.0311,-0.52871 0,-2.36367 -1.32179,-4.41633 -3.9342632,-4.41633 -2.3481155,0 -4.012016,1.92826 -4.012016,4.27637 l 0,0.0311 c 0,2.53472 1.8349554,4.26083 4.2141718,4.26083 m -2.3481178,-4.8673 c 0.1710547,-1.27513 0.9796794,-2.16151 2.1304115,-2.16151 1.2440347,0 1.9593568,0.94858 2.0837602,2.16151 l -4.2141717,0"
         style="font-family:Gotham;-inkscape-font-specification:Gotham"
         id="path3011" />
    </g>
  </g>
</svg>
