<?xml version="1.0" encoding="UTF-8" standalone="no"?>
<!-- Created with Inkscape (http://www.inkscape.org/) -->

<svg
   xmlns:dc="http://purl.org/dc/elements/1.1/"
   xmlns:cc="http://creativecommons.org/ns#"
   xmlns:rdf="http://www.w3.org/1999/02/22-rdf-syntax-ns#"
   xmlns:svg="http://www.w3.org/2000/svg"
   xmlns="http://www.w3.org/2000/svg"
   xmlns:sodipodi="http://sodipodi.sourceforge.net/DTD/sodipodi-0.dtd"
   xmlns:inkscape="http://www.inkscape.org/namespaces/inkscape"
   width="304.53125"
   height="321.75"
   id="svg2"
   version="1.1"
   inkscape:version="0.48.3.1 r9886"
   sodipodi:docname="coming_soon.svg">
  <defs
     id="defs4" />
  <sodipodi:namedview
     id="base"
     pagecolor="#ffffff"
     bordercolor="#666666"
     borderopacity="1.0"
     inkscape:pageopacity="0.0"
     inkscape:pageshadow="2"
     inkscape:zoom="2.8"
     inkscape:cx="99.102614"
     inkscape:cy="82.733628"
     inkscape:document-units="px"
     inkscape:current-layer="layer1"
     showgrid="false"
     inkscape:window-width="1668"
     inkscape:window-height="931"
     inkscape:window-x="250"
     inkscape:window-y="27"
     inkscape:window-maximized="0"
     fit-margin-top="0"
     fit-margin-left="0"
     fit-margin-right="0"
     fit-margin-bottom="0" />
  <metadata
     id="metadata7">
    <rdf:RDF>
      <cc:Work
         rdf:about="">
        <dc:format>image/svg+xml</dc:format>
        <dc:type
           rdf:resource="http://purl.org/dc/dcmitype/StillImage" />
        <dc:title />
      </cc:Work>
    </rdf:RDF>
  </metadata>
  <g
     inkscape:label="Layer 1"
     inkscape:groupmode="layer"
     id="layer1"
     transform="translate(-267.40625,-282.53125)">
    <path
       style="fill:none;stroke:#000000;stroke-width:0.46062702px;stroke-linecap:butt;stroke-linejoin:miter;stroke-opacity:1"
       d="m 432.19407,604.06043 c 55.27525,0 55.27525,0 55.27525,0 l 84.22893,-84.22893 0,-63.17171 z"
       id="path2985"
       inkscape:connector-curvature="0" />
    <path
       style="opacity:1;fill:#ffad76;fill-opacity:1;stroke:none"
       d="m 433.79758,602.984 c 0.31218,-0.38526 31.36126,-33.22806 68.99795,-72.984 l 68.43035,-72.28353 0.0621,31.0081 0.0621,31.0081 -41.97537,41.97589 -41.97537,41.9759 -27.08462,0 -27.08463,0 0.5676,-0.70046 z"
       id="path3800"
       inkscape:connector-curvature="0" />
    <g
       transform="matrix(0.70710678,-0.70710678,0.70710678,0.70710678,0,0)"
       style="font-size:18.42507935px;font-style:normal;font-variant:normal;font-weight:normal;font-stretch:normal;line-height:125%;letter-spacing:0px;word-spacing:0px;fill:#000000;fill-opacity:1;stroke:none;font-family:Trebuchet MS;-inkscape-font-specification:Trebuchet MS"
       id="text2991">
      <path
         d="m -78.671478,758.28635 c 2.413683,0 3.887693,-0.88441 5.232722,-2.28471 l -1.455581,-1.47401 c -1.105504,1.0318 -2.118886,1.65826 -3.703441,1.65826 -2.468958,0 -4.256193,-2.04519 -4.256193,-4.56942 l 0,-0.0369 c 0,-2.52423 1.80566,-4.551 4.256193,-4.551 1.474005,0 2.579512,0.64488 3.611315,1.60299 l 1.455582,-1.67669 c -1.234479,-1.1792 -2.671639,-2.00833 -5.048472,-2.00833 -3.906113,0 -6.651454,3.00329 -6.651454,6.66988 l 0,0.0368 c 0,3.70344 2.800616,6.63303 6.559329,6.63303"
         style="font-family:Gotham;-inkscape-font-specification:Gotham"
         id="path3039" />
      <path
         d="m -66.869927,758.28635 c 3.003285,0 5.214297,-2.30314 5.214297,-5.0669 l 0,-0.0369 c 0,-2.78218 -2.192587,-5.04847 -5.177447,-5.04847 -2.98486,0 -5.195872,2.30314 -5.195872,5.08532 l 0,0.0368 c 0,2.76376 2.192587,5.03005 5.159022,5.03005 m 0.03685,-1.95306 c -1.731956,0 -2.966438,-1.41873 -2.966438,-3.11384 l 0,-0.0369 c 0,-1.69511 1.142357,-3.09541 2.929588,-3.09541 1.750381,0 2.984863,1.41873 2.984863,3.13226 l 0,0.0368 c 0,1.67668 -1.142357,3.07699 -2.948013,3.07699"
         style="font-family:Gotham;-inkscape-font-specification:Gotham"
         id="path3041" />
      <path
         d="m -59.403165,758.06525 2.229435,0 0,-5.49068 c 0,-1.49243 0.847555,-2.41368 2.082034,-2.41368 1.234479,0 1.971483,0.84755 1.971483,2.35841 l 0,5.54595 2.229435,0 0,-5.49068 c 0,-1.56613 0.86598,-2.41368 2.082034,-2.41368 1.252904,0 1.971484,0.82913 1.971484,2.37683 l 0,5.52753 2.229434,0 0,-6.20926 c 0,-2.37683 -1.289758,-3.72186 -3.40864,-3.72186 -1.474004,0 -2.505811,0.68173 -3.279664,1.71353 -0.515901,-1.0318 -1.510858,-1.71353 -2.911162,-1.71353 -1.49243,0 -2.339986,0.8107 -2.966438,1.67668 l 0,-1.47401 -2.229435,0 0,9.72845"
         style="font-family:Gotham;-inkscape-font-specification:Gotham"
         id="path3043" />
      <path
         d="m -41.876881,746.84437 2.39526,0 0,-2.11888 -2.39526,0 0,2.11888 m 0.09212,11.22088 2.229435,0 0,-9.72845 -2.229435,0 0,9.72845"
         style="font-family:Gotham;-inkscape-font-specification:Gotham"
         id="path3045" />
      <path
         d="m -36.659707,758.06525 2.229435,0 0,-5.49068 c 0,-1.51085 0.90283,-2.41368 2.192584,-2.41368 1.326605,0 2.082034,0.86598 2.082034,2.37683 l 0,5.52753 2.229435,0 0,-6.20926 c 0,-2.24785 -1.271333,-3.72186 -3.463915,-3.72186 -1.510855,0 -2.413686,0.79228 -3.040138,1.69511 l 0,-1.49244 -2.229435,0 0,9.72845"
         style="font-family:Gotham;-inkscape-font-specification:Gotham"
         id="path3047" />
      <path
         d="m -20.922098,761.05011 c 1.75038,0 3.113839,-0.42378 3.998242,-1.30818 0.810703,-0.8107 1.23448,-2.02676 1.23448,-3.66659 l 0,-7.73854 -2.229434,0 0,1.45559 c -0.755428,-0.90283 -1.76881,-1.65826 -3.40864,-1.65826 -2.266283,0 -4.422019,1.69511 -4.422019,4.56942 l 0,0.0369 c 0,2.85588 2.137311,4.55099 4.422019,4.55099 1.60298,0 2.616362,-0.737 3.427065,-1.78723 l 0,0.75543 c 0,1.95306 -1.087082,2.98486 -3.076989,2.98486 -1.326604,0 -2.413686,-0.38693 -3.463914,-1.0318 l -0.829129,1.67668 c 1.252904,0.75543 2.745338,1.16078 4.348319,1.16078 m 0.18425,-5.6565 c -1.52928,0 -2.763761,-1.08708 -2.763761,-2.67164 l 0,-0.0369 c 0,-1.60298 1.216056,-2.67163 2.763761,-2.67163 1.547706,0 2.855888,1.08708 2.855888,2.67163 l 0,0.0369 c 0,1.58456 -1.308182,2.67164 -2.855888,2.67164"
         style="font-family:Gotham;-inkscape-font-specification:Gotham"
         id="path3049" />
      <path
         d="m -3.9957803,758.2495 c 2.0267567,0 3.61131555,-1.01338 3.61131555,-3.05857 l 0,-0.0368 c 0,-1.75038 -1.60298335,-2.39526 -3.02171305,-2.83746 -1.1423537,-0.3685 -2.1925844,-0.6633 -2.1925844,-1.38188 l 0,-0.0369 c 0,-0.55275 0.497478,-0.9581 1.3634559,-0.9581 0.8107026,0 1.8056587,0.35007 2.7453368,0.92125 l 0.8844038,-1.58456 c -1.0318034,-0.68172 -2.3584114,-1.1055 -3.5744654,-1.1055 -1.9346314,0 -3.4639149,1.12393 -3.4639149,2.96644 l 0,0.0368 c 0,1.86093 1.6029833,2.45053 3.0401381,2.85588 1.1423538,0.35008 2.1741593,0.60803 2.1741593,1.36346 l 0,0.0369 c 0,0.64488 -0.5527533,1.05023 -1.5108565,1.05023 -0.9949533,0 -2.1188852,-0.40535 -3.1875387,-1.19763 l -0.9949543,1.51086 c 1.216054,0.9581 2.7453382,1.45558 4.1272178,1.45558"
         style="font-family:Gotham;-inkscape-font-specification:Gotham"
         id="path3051" />
      <path
         d="m 6.5425028,758.28635 c 3.0032849,0 5.2142972,-2.30314 5.2142972,-5.0669 l 0,-0.0369 c 0,-2.78218 -2.1925872,-5.04847 -5.1774471,-5.04847 -2.9848598,0 -5.1958723,2.30314 -5.1958723,5.08532 l 0,0.0368 c 0,2.76376 2.1925874,5.03005 5.1590222,5.03005 m 0.03685,-1.95306 c -1.7319557,0 -2.9664377,-1.41873 -2.9664377,-3.11384 l 0,-0.0369 c 0,-1.69511 1.1423567,-3.09541 2.9295876,-3.09541 1.7503808,0 2.9848628,1.41873 2.9848628,3.13226 l 0,0.0368 c 0,1.67668 -1.1423567,3.07699 -2.9480127,3.07699"
         style="font-family:Gotham;-inkscape-font-specification:Gotham"
         id="path3053" />
      <path
         d="m 18.633956,758.28635 c 3.003285,0 5.214298,-2.30314 5.214298,-5.0669 l 0,-0.0369 c 0,-2.78218 -2.192588,-5.04847 -5.177448,-5.04847 -2.984859,0 -5.195872,2.30314 -5.195872,5.08532 l 0,0.0368 c 0,2.76376 2.192588,5.03005 5.159022,5.03005 m 0.03685,-1.95306 c -1.731955,0 -2.966437,-1.41873 -2.966437,-3.11384 l 0,-0.0369 c 0,-1.69511 1.142356,-3.09541 2.929587,-3.09541 1.750381,0 2.984863,1.41873 2.984863,3.13226 l 0,0.0368 c 0,1.67668 -1.142357,3.07699 -2.948013,3.07699"
         style="font-family:Gotham;-inkscape-font-specification:Gotham"
         id="path3055" />
      <path
         d="m 26.100723,758.06525 2.229434,0 0,-5.49068 c 0,-1.51085 0.90283,-2.41368 2.192585,-2.41368 1.326604,0 2.082034,0.86598 2.082034,2.37683 l 0,5.52753 2.229434,0 0,-6.20926 c 0,-2.24785 -1.271332,-3.72186 -3.463915,-3.72186 -1.510855,0 -2.413686,0.79228 -3.040138,1.69511 l 0,-1.49244 -2.229434,0 0,9.72845"
         style="font-family:Gotham;-inkscape-font-specification:Gotham"
         id="path3057" />
    </g>
  </g>
</svg>
